<?xml version="1.0" encoding="utf-8"?>
<!-- Generator: Adobe Illustrator 16.0.3, SVG Export Plug-In . SVG Version: 6.00 Build 0)  -->
<!DOCTYPE svg PUBLIC "-//W3C//DTD SVG 1.1//EN" "http://www.w3.org/Graphics/SVG/1.1/DTD/svg11.dtd">
<svg version="1.1" id="Capa_1" xmlns="http://www.w3.org/2000/svg" xmlns:xlink="http://www.w3.org/1999/xlink" x="0px" y="0px"
	 width="1280px" height="203px" viewBox="0 299.5 1280 203" enable-background="new 0 299.5 1280 203" xml:space="preserve">
<title>originalLineal</title>
<g id="Capa_2" display="none">
	<g id="Capa_2-2" display="inline">
		<path d="M103.771,349.669v-27.611c-0.042-6.632-5.43-11.985-12.061-11.985H15.854c-6.619-0.042-12.019,5.29-12.061,11.909
			c0,0.025,0,0.051,0,0.076v155.809c0,6.632,5.354,12.02,11.985,12.062h75.856"/>
		
			<rect x="60.322" y="364.246" transform="matrix(-0.712 0.7021 -0.7021 -0.712 422.9504 654.2495)" width="33.983" height="99.22"/>
		
			<rect x="120.847" y="330.156" transform="matrix(-0.7021 -0.712 0.712 -0.7021 -50.1776 778.9729)" width="33.983" height="139.651"/>
		<path d="M328.913,424.388l20.026-62.354h30.343l-32.998,88.903h-35.273l-32.618-88.903h30.343L328.913,424.388z"/>
		<path d="M471.144,411.416h-64.099c-0.225,5.32,1.688,10.51,5.311,14.413c6.482,5.352,15.68,5.903,22.757,1.365
			c2.621-1.843,4.545-4.516,5.461-7.586h30.343c-1.272,6.145-4.092,11.863-8.192,16.613c-4.101,4.979-9.292,8.95-15.171,11.605
			c-6.624,2.89-13.786,4.338-21.013,4.248c-8.492,0.225-16.908-1.651-24.501-5.462c-6.898-3.591-12.613-9.096-16.461-15.854
			c-4.099-7.423-6.167-15.796-5.993-24.274c-0.215-8.473,1.827-16.851,5.917-24.273c3.87-6.749,9.614-12.229,16.537-15.778
			c15.32-7.235,33.075-7.235,48.396,0c6.697,3.421,12.277,8.685,16.082,15.171c3.943,6.925,5.937,14.79,5.765,22.757
			C472.125,406.744,471.744,409.105,471.144,411.416z M438.449,386.839c-7.437-5.918-17.975-5.918-25.411,0
			c-3.645,3.371-5.755,8.084-5.841,13.047h36.107C443.728,395.028,441.945,390.238,438.449,386.839z"/>
		<path d="M528.643,365.902c5.515-3.168,11.771-4.817,18.13-4.778v29.128h-8.192c-6.163-0.381-12.283,1.242-17.447,4.628
			c-4.51,3.874-6.834,9.713-6.22,15.626v40.432h-28.219v-88.903h28.294v16.764C518.463,373.485,523.141,369.067,528.643,365.902z"/>
		<path d="M563.992,326.761c3.529-2.846,7.989-4.278,12.516-4.021c4.428-0.211,8.777,1.221,12.213,4.021
			c3.03,2.558,4.732,6.354,4.628,10.316c0.068,3.891-1.634,7.603-4.628,10.089c-3.406,2.859-7.771,4.323-12.213,4.097
			c-4.463,0.209-8.844-1.252-12.288-4.097c-2.968-2.507-4.664-6.205-4.628-10.089C559.474,333.159,561.082,329.387,563.992,326.761z
			 M590.314,362.034v88.903H562.02v-88.903H590.314z"/>
		<path d="M658.585,349.973c-3.63-0.346-7.257,0.684-10.165,2.883c-2.397,2.445-3.71,5.754-3.641,9.179h16.688v22.757h-16.688
			v65.919h-28.143v-65.691h-11.075v-22.757h11.075v-1.138c-0.597-9.581,3.067-18.937,10.013-25.564
			c8.224-6.519,18.583-9.736,29.053-9.026h5.993v23.591L658.585,349.973z"/>
		<path d="M679.445,326.761c3.437-2.8,7.785-4.231,12.213-4.021c4.449-0.201,8.819,1.229,12.289,4.021
			c2.994,2.584,4.688,6.362,4.627,10.316c0.036,3.884-1.66,7.582-4.627,10.089c-3.445,2.845-7.826,4.306-12.289,4.097
			c-4.442,0.227-8.806-1.237-12.213-4.097c-2.881-2.545-4.468-6.248-4.324-10.089C674.94,333.164,676.528,329.376,679.445,326.761z
			 M705.464,362.034v88.903h-28.066v-88.903H705.464z"/>
		<path d="M793.685,370.454c8.121,6.481,13.53,15.759,15.172,26.019h-30.343c-0.699-3.538-2.635-6.711-5.462-8.951
			c-3.003-2.208-6.667-3.331-10.393-3.186c-4.499-0.026-8.779,1.946-11.682,5.386c-3.492,4.747-5.186,10.581-4.778,16.461
			c-0.486,6.005,1.211,11.984,4.778,16.84c3.027,3.646,7.552,5.712,12.289,5.613c3.725,0.146,7.389-0.978,10.393-3.186
			c2.848-2.188,4.791-5.348,5.461-8.876h30.343c-1.654,10.255-7.062,19.528-15.171,26.02c-8.616,6.48-19.188,9.825-29.964,9.481
			c-8.365,0.169-16.646-1.706-24.122-5.462c-6.897-3.591-12.612-9.096-16.461-15.854c-4.133-7.409-6.203-15.792-5.992-24.274
			c-0.216-8.473,1.827-16.851,5.917-24.273c3.828-6.754,9.551-12.239,16.461-15.778c7.506-3.747,15.809-5.621,24.197-5.462
			C774.903,360.73,785.249,364.072,793.685,370.454z"/>
		<path d="M887.975,365.902v-3.868h28.143v88.903h-28.143v-3.869c-7.234,3.786-15.367,5.519-23.516,5.007
			c-8.62,0.203-17.137-1.92-24.653-6.145c-6.781-4.117-12.354-9.953-16.157-16.916c-3.622-7.022-5.373-14.86-5.083-22.757
			c-0.167-7.901,1.632-15.722,5.234-22.757c3.459-6.572,8.722-12.02,15.171-15.702c7.757-4.515,16.59-6.847,25.564-6.751
			C872.632,360.671,880.693,362.341,887.975,365.902z M852.929,390.556c-3.889,4.363-5.882,10.096-5.538,15.93
			c-0.369,5.839,1.627,11.58,5.538,15.931c8.201,7.802,21.079,7.802,29.28,0c3.948-4.281,6.023-9.961,5.766-15.778
			c0.287-5.845-1.791-11.56-5.766-15.854c-8.26-7.651-21.02-7.651-29.28,0V390.556z"/>
		<path d="M974.526,365.902c5.542-3.168,11.822-4.816,18.206-4.778v29.128h-8.117c-6.187-0.381-12.331,1.241-17.522,4.628
			c-4.479,3.896-6.796,9.718-6.221,15.626v40.432h-28.294v-88.903h28.294v16.764C964.346,373.485,969.024,369.067,974.526,365.902z"
			/>
		<path d="M1005.779,423.705v27.232h-29.28v-27.232H1005.779z"/>
		<path d="M1167.126,371.364c6.813,7.708,10.302,17.797,9.709,28.066v51.507h-28.066v-48.32c0.278-4.832-1.419-9.568-4.703-13.123
			c-7.492-6.478-18.603-6.478-26.095,0c-3.467,3.853-5.244,8.936-4.931,14.109v47.03h-28.294v-48.017
			c0.232-4.729-1.402-9.36-4.552-12.896c-3.424-3.248-8.031-4.948-12.744-4.703c-4.795-0.19-9.476,1.496-13.047,4.703
			c-3.495,3.866-5.273,8.984-4.931,14.185v47.031h-28.295v-88.752h28.295v15.171c2.396-4.988,6.296-9.1,11.15-11.757
			c5.378-2.98,11.453-4.473,17.6-4.324c6.527-0.123,12.971,1.501,18.66,4.703c5.377,3.085,9.649,7.782,12.213,13.427
			c3.084-5.417,7.495-9.959,12.819-13.199c14.694-8.288,33.048-6.208,45.514,5.158H1167.126z"/>
		<path d="M1279.166,411.492h-63.947c-0.25,5.324,1.665,10.523,5.31,14.413c3.341,3.003,7.724,4.582,12.213,4.399
			c3.703,0.154,7.354-0.912,10.393-3.034c2.604-1.86,4.524-4.525,5.462-7.586h29.887c-1.055,6.145-3.666,11.916-7.585,16.765
			c-4.189,5.047-9.521,9.025-15.551,11.605c-6.612,2.926-13.783,4.376-21.013,4.248c-8.34,0.163-16.594-1.712-24.046-5.462
			c-6.877-3.593-12.567-9.099-16.386-15.854c-4.134-7.382-6.204-15.74-5.992-24.198c-0.196-8.438,1.817-16.779,5.841-24.198
			c3.771-6.654,9.381-12.08,16.157-15.626c15.27-7.23,32.977-7.23,48.245,0c6.737,3.391,12.35,8.66,16.157,15.171
			c3.921,6.931,5.888,14.796,5.689,22.757C1279.92,407.113,1279.641,409.322,1279.166,411.492z M1246.547,386.99
			c-3.474-2.981-7.939-4.552-12.516-4.399c-4.689-0.139-9.27,1.424-12.896,4.399c-3.581,3.409-5.655,8.104-5.766,13.048h36.26
			C1252.018,395.141,1250.146,390.335,1246.547,386.99z"/>
	</g>
</g>
<linearGradient id="SVGID_1_" gradientUnits="userSpaceOnUse" x1="-14.9023" y1="460.9355" x2="130.5871" y2="338.7229">
	<stop  offset="0" style="stop-color:#000000"/>
	<stop  offset="0.0396" style="stop-color:#000123"/>
	<stop  offset="0.0993" style="stop-color:#000250"/>
	<stop  offset="0.1646" style="stop-color:#00027A"/>
	<stop  offset="0.2343" style="stop-color:#00039E"/>
	<stop  offset="0.3092" style="stop-color:#0004BC"/>
	<stop  offset="0.3913" style="stop-color:#0004D5"/>
	<stop  offset="0.4833" style="stop-color:#0005E8"/>
	<stop  offset="0.5909" style="stop-color:#0005F5"/>
	<stop  offset="0.7285" style="stop-color:#0005FD"/>
	<stop  offset="1" style="stop-color:#0005FF"/>
</linearGradient>
<path display="none" fill="none" stroke="url(#SVGID_1_)" stroke-width="4" stroke-miterlimit="10" d="M109.931,349.859v-28.151
	c0-6.771-5.484-12.255-12.258-12.255H20.234c-6.771,0-12.264,5.484-12.264,12.255v158.885c0,6.765,5.493,12.258,12.264,12.258H97.5
	l0,0H20.234c-6.771,0-12.264-5.493-12.264-12.258V321.708c0-6.771,5.493-12.255,12.264-12.255h77.439
	c6.774,0,12.258,5.484,12.258,12.255V349.859L109.931,349.859z"/>
<g display="none">
	<defs>
		<polygon id="SVGID_2_" points="35.072,391.389 106.141,463.47 130.799,439.169 59.724,367.079 		"/>
	</defs>
	<clipPath id="SVGID_3_" display="inline">
		<use xlink:href="#SVGID_2_"  overflow="visible"/>
	</clipPath>
	
		<linearGradient id="SVGID_4_" gradientUnits="userSpaceOnUse" x1="419.228" y1="600.9609" x2="425.022" y2="600.9609" gradientTransform="matrix(17.1506 1.6134 1.6134 -17.1506 -8126.3726 10041.0459)">
		<stop  offset="0" style="stop-color:#1E1E1E"/>
		<stop  offset="0.006" style="stop-color:#1D1D23"/>
		<stop  offset="0.0678" style="stop-color:#171851"/>
		<stop  offset="0.1355" style="stop-color:#12147A"/>
		<stop  offset="0.2076" style="stop-color:#0D109E"/>
		<stop  offset="0.2851" style="stop-color:#090CBC"/>
		<stop  offset="0.37" style="stop-color:#060AD5"/>
		<stop  offset="0.4652" style="stop-color:#0308E8"/>
		<stop  offset="0.5765" style="stop-color:#0106F5"/>
		<stop  offset="0.719" style="stop-color:#0005FD"/>
		<stop  offset="1" style="stop-color:#0005FF"/>
	</linearGradient>
	<polygon display="inline" clip-path="url(#SVGID_3_)" fill="url(#SVGID_4_)" points="35.912,358.152 139.787,367.924 
		129.959,472.397 26.083,462.627 	"/>
</g>
<g display="none">
	<defs>
		
			<rect id="SVGID_5_" x="127.381" y="329.931" transform="matrix(-0.7021 -0.7121 0.7121 -0.7021 -39.3545 785.8239)" width="34.628" height="142.426"/>
	</defs>
	<clipPath id="SVGID_6_" display="inline">
		<use xlink:href="#SVGID_5_"  overflow="visible"/>
	</clipPath>
	
		<linearGradient id="SVGID_7_" gradientUnits="userSpaceOnUse" x1="423.4531" y1="604.4316" x2="429.2463" y2="604.4316" gradientTransform="matrix(17.4104 0 6.0597 -18.3494 -10936.4434 11492.1064)">
		<stop  offset="0" style="stop-color:#1E1E1E"/>
		<stop  offset="0.006" style="stop-color:#1D1D23"/>
		<stop  offset="0.0678" style="stop-color:#171851"/>
		<stop  offset="0.1355" style="stop-color:#12147A"/>
		<stop  offset="0.2076" style="stop-color:#0D109E"/>
		<stop  offset="0.2851" style="stop-color:#090CBC"/>
		<stop  offset="0.37" style="stop-color:#060AD5"/>
		<stop  offset="0.4652" style="stop-color:#0308E8"/>
		<stop  offset="0.5765" style="stop-color:#0106F5"/>
		<stop  offset="0.719" style="stop-color:#0005FD"/>
		<stop  offset="1" style="stop-color:#0005FF"/>
	</linearGradient>
	<polygon display="inline" clip-path="url(#SVGID_6_)" fill="url(#SVGID_7_)" points="81.828,338.817 248.729,338.817 
		207.562,463.47 40.664,463.47 	"/>
</g>
<polygon display="none" fill="#0F1647" points="301.806,426.006 322.235,362.479 352.971,362.479 319.543,453.142 283.738,453.142 
	250.292,362.479 281.034,362.479 "/>
<path display="none" fill="#0F1647" d="M446.869,412.842h-65.356c0.336,6.828,2.136,11.732,5.405,14.708
	c3.267,2.981,7.424,4.464,12.493,4.464c4.282,0,7.82-1.03,10.64-3.084c2.809-2.054,4.669-4.711,5.566-7.965h30.575
	c-1.242,6.393-3.946,12.106-8.109,17.141c-4.166,5.046-9.455,8.994-15.873,11.868c-6.412,2.874-13.571,4.299-21.451,4.299
	c-9.231,0-17.423-1.866-24.57-5.6c-7.15-3.746-12.75-9.131-16.807-16.168c-4.047-7.042-6.075-15.273-6.075-24.697
	c0-9.529,2-17.785,5.996-24.777c3.997-6.992,9.597-12.343,16.804-16.085c7.207-3.73,15.42-5.606,24.652-5.606
	c9.345,0,17.564,1.847,24.661,5.524c7.088,3.686,12.581,8.853,16.456,15.52c3.886,6.661,5.827,14.325,5.827,22.992
	C447.703,407.649,447.426,410.139,446.869,412.842 M413.51,387.746c-3.436-2.976-7.682-4.472-12.75-4.472
	c-5.289,0-9.678,1.519-13.172,4.548c-3.487,3.035-5.461,7.479-5.908,13.322h36.806C418.602,395.19,416.944,390.724,413.51,387.746"
	/>
<path display="none" fill="#0F1647" d="M505.552,366.383c5.677-3.25,11.846-4.874,18.489-4.874v29.729h-8.275
	c-7.66,0-13.591,1.57-17.813,4.715c-4.229,3.14-6.33,8.449-6.33,15.916v41.272h-28.883v-90.659h28.883v17.061
	C495.223,374.017,499.864,369.633,505.552,366.383"/>
<path display="none" fill="#0F1647" d="M541.603,326.497c3.151-2.763,7.314-4.149,12.496-4.149c5.176,0,9.345,1.386,12.496,4.149
	c3.151,2.758,4.729,6.254,4.729,10.477c0,4.121-1.579,7.555-4.729,10.313c-3.15,2.769-7.32,4.141-12.496,4.141
	c-5.182,0-9.345-1.372-12.496-4.141c-3.151-2.757-4.729-6.191-4.729-10.313C536.874,332.75,538.452,329.254,541.603,326.497
	 M568.456,453.142h-28.878v-90.656h28.878V453.142z"/>
<path display="none" fill="#0F1647" d="M638.023,350.128c-4.729,0-8.163,0.976-10.301,2.933c-2.132,1.946-3.326,5.091-3.547,9.418
	h17.061v23.391h-17.061v67.271h-28.877v-67.271h-11.308v-23.391h11.308v-0.973c0-11.262,3.405-19.962,10.216-26.077
	c6.811-6.113,16.688-9.181,29.636-9.181c2.71,0,4.729,0.062,6.086,0.167v23.883L638.023,350.128z"/>
<path display="none" fill="#0F1647" d="M659.304,326.497c3.15-2.763,7.314-4.149,12.496-4.149c5.176,0,9.351,1.386,12.496,4.149
	c3.15,2.758,4.734,6.254,4.734,10.477c0,4.121-1.584,7.555-4.734,10.313c-3.146,2.769-7.32,4.141-12.496,4.141
	c-5.182,0-9.346-1.372-12.496-4.141c-3.151-2.757-4.729-6.191-4.729-10.313C654.575,332.75,656.152,329.254,659.304,326.497
	 M686.156,453.142h-28.871v-90.656h28.871V453.142z"/>
<path display="none" fill="#0F1647" d="M775.822,371.013c8.219,6.446,13.401,15.296,15.539,26.564h-30.569
	c-0.904-3.901-2.754-6.936-5.571-9.108c-2.813-2.161-6.364-3.244-10.641-3.244c-5.063,0-9.232,1.923-12.495,5.77
	c-3.265,3.846-4.899,9.453-4.899,16.812c0,7.365,1.635,12.966,4.899,16.813c3.263,3.846,7.433,5.769,12.495,5.769
	c4.276,0,7.828-1.08,10.641-3.252c2.817-2.161,4.667-5.198,5.571-9.096h30.569c-2.138,11.268-7.32,20.121-15.539,26.564
	c-8.22,6.448-18.407,9.678-30.569,9.678c-9.232,0-17.423-1.877-24.567-5.61c-7.149-3.746-12.745-9.131-16.807-16.168
	c-4.05-7.042-6.069-15.273-6.069-24.697c0-9.532,1.991-17.785,5.991-24.777c3.992-6.986,9.593-12.343,16.8-16.085
	c7.207-3.73,15.42-5.604,24.652-5.604C757.415,361.342,767.603,364.57,775.822,371.013"/>
<path display="none" fill="#0F1647" d="M871.971,366.405v-3.929h28.714v90.653h-28.714v-3.926c0,0-7.506,5.068-23.973,5.068
	c-10.262,0-19.001-2.545-25.139-6.278c-6.133-3.734-12.943-10.177-16.49-17.221c-3.547-7.036-5.153-13.542-5.153-22.966
	c0-9.532,1.782-16.591,5.335-23.578c3.54-6.992,8.993-12.241,15.131-15.983c6.132-3.73,15.081-6.904,26.033-6.904
	C863.916,361.342,871.971,366.405,871.971,366.405 M836.26,391.556c-3.779,3.9-5.656,9.316-5.656,16.252
	c0,6.935,1.877,12.344,5.656,16.247c3.768,3.897,8.751,5.849,14.944,5.849c6.075,0,11.06-2.003,14.946-6.014
	c3.88-4.01,5.82-9.374,5.82-16.082c0-6.833-1.94-12.213-5.82-16.164c-3.887-3.951-8.871-5.932-14.946-5.932
	C845.011,385.712,840.027,387.658,836.26,391.556"/>
<path display="none" fill="#0F1647" d="M960.319,366.383c5.685-3.25,11.845-4.874,18.497-4.874v29.729h-8.281
	c-7.653,0-13.594,1.57-17.819,4.715c-4.22,3.14-6.33,8.449-6.33,15.916v41.272h-28.872v-90.659h28.872v17.061
	C949.989,374.017,954.634,369.633,960.319,366.383"/>
<rect x="962.266" y="425.354" display="none" fill="#0F1647" width="29.89" height="27.787"/>
<path display="none" fill="#0F1647" d="M1156.689,371.958c6.629,6.876,9.955,16.43,9.955,28.646v52.538h-28.668v-49.299
	c0-5.725-1.584-10.186-4.798-13.376c-3.19-3.187-7.557-4.796-13.05-4.796c-5.753,0-10.277,1.697-13.582,5.114
	c-3.326,3.397-4.978,8.191-4.978,14.348v48.01h-28.828v-49.299c0-5.725-1.577-10.186-4.723-13.376
	c-3.146-3.187-7.468-4.796-12.965-4.796c-5.748,0-10.296,1.674-13.668,5.023c-3.37,3.352-5.045,8.171-5.045,14.439v48.01h-28.827
	v-90.503h28.827v15.409c2.466-5.068,6.245-9.07,11.381-11.989c5.114-2.922,11.093-4.393,17.943-4.393
	c7.189,0,13.548,1.604,19.047,4.797c5.498,3.19,9.662,7.761,12.468,13.687c3.258-5.612,7.738-10.089,13.418-13.461
	c5.656-3.349,11.924-5.023,18.78-5.023C1140.963,361.665,1150.059,365.107,1156.689,371.958"/>
<path display="none" fill="#0F1647" d="M1270.996,412.91h-65.234c0.34,6.811,2.127,11.727,5.385,14.685
	c3.259,2.987,7.422,4.458,12.491,4.458c4.253,0,7.806-1.019,10.611-3.072c2.806-2.064,4.661-4.711,5.566-7.941h30.502
	c-1.223,6.375-3.938,12.076-8.078,17.101c-4.164,5.023-9.437,8.982-15.861,11.834c-6.404,2.874-13.531,4.299-21.405,4.299
	c-9.21,0-17.401-1.855-24.528-5.589c-7.128-3.733-12.711-9.119-16.762-16.134c-4.05-7.036-6.063-15.251-6.063-24.663
	c0-9.5,1.991-17.757,5.973-24.726c3.983-6.973,9.566-12.332,16.762-16.063c7.195-3.711,15.409-5.589,24.619-5.589
	c9.322,0,17.535,1.83,24.618,5.521c7.082,3.665,12.558,8.821,16.427,15.471c3.892,6.655,5.815,14.3,5.815,22.964
	C1271.833,407.734,1271.562,410.217,1270.996,412.91 M1237.711,387.865c-3.439-2.964-7.67-4.46-12.738-4.46
	c-5.272,0-9.663,1.519-13.146,4.531c-3.485,3.029-5.453,7.467-5.906,13.305h36.746
	C1242.779,395.286,1241.128,390.832,1237.711,387.865"/>
<g>
	<line display="none" fill="#0F1647" x1="-95.805" y1="252.505" x2="1356.388" y2="237.505"/>
	
		<linearGradient id="SVGID_8_" gradientUnits="userSpaceOnUse" x1="418.7539" y1="604.1992" x2="426.9385" y2="611.0744" gradientTransform="matrix(18.9369 0 0 -18.9369 -7949.8647 11908.5566)">
		<stop  offset="0" style="stop-color:#000000"/>
		<stop  offset="0.0396" style="stop-color:#000123"/>
		<stop  offset="0.0993" style="stop-color:#000250"/>
		<stop  offset="0.1646" style="stop-color:#00027A"/>
		<stop  offset="0.2343" style="stop-color:#00039E"/>
		<stop  offset="0.3092" style="stop-color:#0004BC"/>
		<stop  offset="0.3913" style="stop-color:#0004D5"/>
		<stop  offset="0.4833" style="stop-color:#0005E8"/>
		<stop  offset="0.5909" style="stop-color:#0005F5"/>
		<stop  offset="0.7285" style="stop-color:#0005FD"/>
		<stop  offset="1" style="stop-color:#0005FF"/>
	</linearGradient>
	<linearGradient id="SVGID_9_" gradientUnits="userSpaceOnUse" x1="5.4243" y1="402.8633" x2="111.665" y2="402.8633">
		<stop  offset="0" style="stop-color:#FFFFFF"/>
		<stop  offset="1" style="stop-color:#A6A6A6"/>
	</linearGradient>
	<path fill="url(#SVGID_8_)" stroke="url(#SVGID_9_)" stroke-width="4" stroke-miterlimit="10" d="M109.665,350.674v-28.648
		c0-6.89-5.503-12.473-12.292-12.473h-77.65c-6.784,0-12.298,5.583-12.298,12.473v161.669c0,6.883,5.514,12.479,12.298,12.479H97.2
		l0,0H19.722c-6.784,0-12.298-5.596-12.298-12.479V322.026c0-6.89,5.514-12.473,12.298-12.473h77.65
		c6.79,0,12.292,5.583,12.292,12.473V350.674L109.665,350.674z"/>
	<g>
		<defs>
			<polygon id="SVGID_10_" points="34.606,392.934 105.87,466.277 130.595,441.543 59.325,368.195 			"/>
		</defs>
		<clipPath id="SVGID_11_">
			<use xlink:href="#SVGID_10_"  overflow="visible"/>
		</clipPath>
		
			<linearGradient id="SVGID_12_" gradientUnits="userSpaceOnUse" x1="418.8672" y1="604.2266" x2="424.6855" y2="604.2266" gradientTransform="matrix(17.1506 1.6134 1.6134 -17.1506 -8125.9976 10099.5928)">
			<stop  offset="0" style="stop-color:#FFFFFF"/>
			<stop  offset="1" style="stop-color:#A6A6A6"/>
		</linearGradient>
		<polygon clip-path="url(#SVGID_11_)" fill="url(#SVGID_12_)" points="35.448,359.112 139.607,369.058 129.752,475.359 
			25.593,465.421 		"/>
	</g>
	<g>
		<defs>
			<polygon id="SVGID_13_" points="81.49,441.193 105.87,466.277 207.562,364.529 183.185,339.438 			"/>
		</defs>
		<clipPath id="SVGID_14_">
			<use xlink:href="#SVGID_13_"  overflow="visible"/>
		</clipPath>
		
			<linearGradient id="SVGID_15_" gradientUnits="userSpaceOnUse" x1="426.6079" y1="607.7021" x2="432.416" y2="607.7021" gradientTransform="matrix(21.7055 0 0 -21.7055 -9178.2471 13593.334)">
			<stop  offset="0" style="stop-color:#FFFFFF"/>
			<stop  offset="1" style="stop-color:#A6A6A6"/>
		</linearGradient>
		<rect x="81.49" y="339.438" clip-path="url(#SVGID_14_)" fill="url(#SVGID_15_)" width="126.072" height="126.84"/>
	</g>
	<polygon fill="#FFFFFF" points="301.038,426.215 321.524,361.576 352.343,361.576 318.824,453.822 282.921,453.822 
		249.384,361.576 280.209,361.576 	"/>
	<path fill="#FFFFFF" d="M446.498,412.822h-65.535c0.338,6.946,2.142,11.932,5.42,14.959c3.275,3.04,7.444,4.547,12.527,4.547
		c4.293,0,7.842-1.048,10.67-3.136c2.814-2.09,4.682-4.796,5.581-8.105h30.658c-1.244,6.498-3.956,12.318-8.13,17.441
		c-4.177,5.126-9.481,9.151-15.917,12.07c-6.429,2.923-13.607,4.387-21.508,4.387c-9.257,0-17.472-1.912-24.638-5.711
		c-7.17-3.804-12.786-9.284-16.853-16.452c-4.059-7.16-6.092-15.528-6.092-25.128c0-9.693,2.006-18.098,6.012-25.214
		c4.007-7.113,9.624-12.559,16.85-16.363c7.227-3.793,15.463-5.705,24.72-5.705c9.37,0,17.611,1.877,24.727,5.619
		c7.107,3.752,12.616,9.013,16.501,15.793c3.897,6.782,5.842,14.576,5.842,23.392C447.334,407.531,447.056,410.069,446.498,412.822
		 M413.048,387.282c-3.447-3.027-7.704-4.547-12.785-4.547c-5.304,0-9.706,1.543-13.209,4.627c-3.497,3.092-5.476,7.61-5.924,13.562
		h36.907C418.153,394.856,416.491,390.31,413.048,387.282"/>
	<path fill="#FFFFFF" d="M505.341,365.542c5.692-3.311,11.877-4.957,18.54-4.957v30.248h-8.299c-7.68,0-13.626,1.594-17.861,4.792
		c-4.24,3.204-6.348,8.602-6.348,16.2v41.996h-28.962v-92.246h28.962v17.36C494.983,373.313,499.638,368.851,505.341,365.542"/>
	<path fill="#FFFFFF" d="M541.491,324.962c3.159-2.815,7.333-4.225,12.529-4.225c5.189,0,9.371,1.41,12.53,4.225
		c3.16,2.803,4.743,6.359,4.743,10.666c0,4.179-1.583,7.684-4.743,10.487c-3.16,2.81-7.341,4.214-12.53,4.214
		c-5.196,0-9.371-1.404-12.529-4.214c-3.161-2.803-4.743-6.308-4.743-10.487C536.748,331.322,538.33,327.766,541.491,324.962
		 M568.417,453.822H539.46v-92.246h28.957V453.822z"/>
	<path fill="#FFFFFF" d="M638.174,349.005c-4.743,0-8.186,0.99-10.33,2.981c-2.138,1.992-3.335,5.18-3.556,9.59h17.107v23.806
		h-17.107v68.44h-28.958v-68.44h-11.337v-23.806h11.337v-0.99c0-11.466,3.415-20.307,10.246-26.535
		c6.829-6.222,16.732-9.348,29.717-9.348c2.715,0,4.741,0.069,6.103,0.173v24.301L638.174,349.005z"/>
	<path fill="#FFFFFF" d="M659.512,324.962c3.161-2.815,7.336-4.225,12.532-4.225c5.188,0,9.375,1.41,12.53,4.225
		c3.157,2.803,4.746,6.359,4.746,10.666c0,4.179-1.589,7.684-4.746,10.487c-3.155,2.81-7.342,4.214-12.53,4.214
		c-5.196,0-9.371-1.404-12.532-4.214c-3.158-2.803-4.741-6.308-4.741-10.487C654.771,331.322,656.354,327.766,659.512,324.962
		 M686.438,453.822h-28.95v-92.246h28.95V453.822z"/>
	<path fill="#FFFFFF" d="M776.349,370.256c8.244,6.563,13.438,15.565,15.582,27.03h-30.652c-0.907-3.97-2.762-7.057-5.587-9.267
		c-2.818-2.199-6.382-3.305-10.67-3.305c-5.076,0-9.256,1.958-12.53,5.871c-3.271,3.914-4.911,9.625-4.911,17.108
		c0,7.492,1.64,13.196,4.911,17.111c3.274,3.908,7.454,5.865,12.53,5.865c4.288,0,7.852-1.098,10.67-3.306
		c2.825-2.196,4.68-5.293,5.587-9.254h30.652c-2.144,11.462-7.338,20.474-15.582,27.028c-8.241,6.563-18.457,9.846-30.65,9.846
		c-9.259,0-17.473-1.912-24.637-5.711c-7.17-3.804-12.779-9.277-16.852-16.452c-4.062-7.16-6.086-15.535-6.086-25.128
		c0-9.693,1.995-18.098,6.007-25.214c4.005-7.102,9.619-12.559,16.846-16.363c7.228-3.793,15.463-5.705,24.722-5.705
		C757.892,360.413,768.107,363.7,776.349,370.256"/>
	<path fill="#FFFFFF" d="M872.762,365.57v-4.006h28.791v92.258h-28.791v-4c0,0-7.527,5.156-24.039,5.156
		c-10.29,0-19.053-2.597-25.208-6.39c-6.149-3.806-12.979-10.354-16.535-17.526c-3.557-7.159-5.167-13.779-5.167-23.368
		c0-9.699,1.785-16.878,5.35-23.987c3.551-7.114,9.018-12.462,15.174-16.26c6.147-3.805,15.12-7.028,26.102-7.028
		C864.684,360.419,872.762,365.57,872.762,365.57 M836.952,391.162c-3.789,3.973-5.673,9.479-5.673,16.532
		c0,7.055,1.884,12.57,5.673,16.535c3.777,3.967,8.773,5.945,14.986,5.945c6.091,0,11.09-2.037,14.985-6.117
		c3.891-4.069,5.838-9.528,5.838-16.363c0-6.942-1.947-12.429-5.838-16.452c-3.896-4.017-8.895-6.031-14.985-6.031
		C845.726,385.211,840.729,387.196,836.952,391.162"/>
	<path fill="#FFFFFF" d="M961.349,365.542c5.701-3.311,11.881-4.957,18.55-4.957v30.248h-8.304c-7.675,0-13.632,1.594-17.867,4.792
		c-4.233,3.204-6.349,8.602-6.349,16.2v41.996h-28.951v-92.246h28.951v17.36C950.991,373.313,955.65,368.851,961.349,365.542"/>
	<rect x="963.301" y="425.547" fill="#FFFFFF" width="29.974" height="28.275"/>
	<path fill="#FFFFFF" d="M1158.256,371.223c6.648,6.994,9.982,16.709,9.982,29.149v53.454h-28.747v-50.168
		c0-5.824-1.588-10.354-4.809-13.602c-3.198-3.252-7.577-4.882-13.085-4.882c-5.771,0-10.308,1.728-13.619,5.203
		c-3.336,3.447-4.994,8.337-4.994,14.592v48.856h-28.902v-50.168c0-5.824-1.584-10.354-4.738-13.602
		c-3.152-3.252-7.488-4.882-12.999-4.882c-5.766,0-10.325,1.704-13.705,5.112c-3.382,3.401-5.061,8.306-5.061,14.683v48.856h-28.905
		v-92.09h28.905v15.68c2.474-5.157,6.264-9.232,11.412-12.203c5.128-2.969,11.124-4.466,17.993-4.466
		c7.211,0,13.583,1.635,19.099,4.882c5.514,3.246,9.688,7.896,12.501,13.93c3.268-5.711,7.761-10.27,13.455-13.701
		c5.673-3.408,11.957-5.111,18.831-5.111C1142.487,360.747,1151.609,364.247,1158.256,371.223"/>
	<path fill="#FFFFFF" d="M1272.876,412.89h-65.413c0.341,6.932,2.132,11.934,5.4,14.943c3.267,3.038,7.442,4.541,12.524,4.541
		c4.266,0,7.826-1.042,10.64-3.13c2.814-2.101,4.675-4.797,5.582-8.081h30.586c-1.227,6.485-3.949,12.283-8.1,17.404
		c-4.176,5.111-9.462,9.13-15.906,12.031c-6.422,2.923-13.568,4.374-21.463,4.374c-9.234,0-17.449-1.888-24.596-5.681
		c-7.147-3.807-12.746-9.273-16.806-16.411c-4.062-7.164-6.082-15.523-6.082-25.102c0-9.672,1.997-18.067,5.99-25.16
		c3.994-7.091,9.591-12.548,16.808-16.347c7.215-3.775,15.451-5.687,24.686-5.687c9.348,0,17.582,1.864,24.685,5.617
		c7.103,3.731,12.593,8.979,16.474,15.75c3.901,6.768,5.83,14.55,5.83,23.362C1273.715,407.625,1273.442,410.149,1272.876,412.89
		 M1239.499,387.403c-3.447-3.01-7.691-4.531-12.772-4.531c-5.287,0-9.689,1.545-13.184,4.605
		c-3.493,3.081-5.469,7.597-5.921,13.541h36.848C1244.581,394.957,1242.927,390.425,1239.499,387.403"/>
</g>
</svg>
