<?xml version="1.0" encoding="utf-8"?>
<!-- Generator: Adobe Illustrator 16.0.3, SVG Export Plug-In . SVG Version: 6.00 Build 0)  -->
<!DOCTYPE svg PUBLIC "-//W3C//DTD SVG 1.1//EN" "http://www.w3.org/Graphics/SVG/1.1/DTD/svg11.dtd">
<svg version="1.1" id="Capa_1" xmlns="http://www.w3.org/2000/svg" xmlns:xlink="http://www.w3.org/1999/xlink" x="0px" y="0px"
	 width="1280px" height="203px" viewBox="0 299.5 1280 203" enable-background="new 0 299.5 1280 203" xml:space="preserve">
<title>originalLineal</title>
<g id="Capa_2" display="none">
	<g id="Capa_2-2" display="inline">
		<path d="M103.771,349.669v-27.611c-0.042-6.632-5.43-11.985-12.061-11.985H15.854c-6.619-0.042-12.019,5.29-12.061,11.909
			c0,0.025,0,0.051,0,0.076v155.809c0,6.632,5.354,12.02,11.985,12.062h75.856"/>
		
			<rect x="60.322" y="364.246" transform="matrix(-0.712 0.7021 -0.7021 -0.712 422.9504 654.2495)" width="33.983" height="99.22"/>
		
			<rect x="120.847" y="330.156" transform="matrix(-0.7021 -0.712 0.712 -0.7021 -50.1776 778.9729)" width="33.983" height="139.651"/>
		<path d="M328.913,424.388l20.026-62.354h30.343l-32.998,88.903h-35.273l-32.618-88.903h30.343L328.913,424.388z"/>
		<path d="M471.144,411.416h-64.099c-0.225,5.32,1.688,10.51,5.311,14.413c6.482,5.352,15.68,5.903,22.757,1.365
			c2.621-1.843,4.545-4.516,5.461-7.586h30.343c-1.272,6.145-4.092,11.863-8.192,16.613c-4.101,4.979-9.292,8.95-15.171,11.605
			c-6.624,2.89-13.786,4.338-21.013,4.248c-8.492,0.225-16.908-1.651-24.501-5.462c-6.898-3.591-12.613-9.096-16.461-15.854
			c-4.099-7.423-6.167-15.796-5.993-24.274c-0.215-8.473,1.827-16.851,5.917-24.273c3.87-6.749,9.614-12.229,16.537-15.778
			c15.32-7.235,33.075-7.235,48.396,0c6.697,3.421,12.277,8.685,16.082,15.171c3.943,6.925,5.937,14.79,5.765,22.757
			C472.125,406.744,471.744,409.105,471.144,411.416z M438.449,386.839c-7.437-5.918-17.975-5.918-25.411,0
			c-3.645,3.371-5.755,8.084-5.841,13.047h36.107C443.728,395.028,441.945,390.238,438.449,386.839z"/>
		<path d="M528.643,365.902c5.515-3.168,11.771-4.817,18.13-4.778v29.128h-8.192c-6.163-0.381-12.283,1.242-17.447,4.628
			c-4.51,3.874-6.834,9.713-6.22,15.626v40.432h-28.219v-88.903h28.294v16.764C518.463,373.485,523.141,369.067,528.643,365.902z"/>
		<path d="M563.992,326.761c3.529-2.846,7.989-4.278,12.516-4.021c4.428-0.211,8.777,1.221,12.213,4.021
			c3.03,2.558,4.732,6.354,4.628,10.316c0.068,3.891-1.634,7.603-4.628,10.089c-3.406,2.859-7.771,4.323-12.213,4.097
			c-4.463,0.209-8.844-1.252-12.288-4.097c-2.968-2.507-4.664-6.205-4.628-10.089C559.474,333.159,561.082,329.387,563.992,326.761z
			 M590.314,362.034v88.903H562.02v-88.903H590.314z"/>
		<path d="M658.585,349.973c-3.63-0.346-7.257,0.684-10.165,2.883c-2.397,2.445-3.71,5.754-3.641,9.179h16.688v22.757h-16.688
			v65.919h-28.143v-65.691h-11.075v-22.757h11.075v-1.138c-0.597-9.581,3.067-18.937,10.013-25.564
			c8.224-6.519,18.583-9.736,29.053-9.026h5.993v23.591L658.585,349.973z"/>
		<path d="M679.445,326.761c3.437-2.8,7.785-4.231,12.213-4.021c4.449-0.201,8.819,1.229,12.289,4.021
			c2.994,2.584,4.688,6.362,4.627,10.316c0.036,3.884-1.66,7.582-4.627,10.089c-3.445,2.845-7.826,4.306-12.289,4.097
			c-4.442,0.227-8.806-1.237-12.213-4.097c-2.881-2.545-4.468-6.248-4.324-10.089C674.94,333.164,676.528,329.376,679.445,326.761z
			 M705.464,362.034v88.903h-28.066v-88.903H705.464z"/>
		<path d="M793.685,370.454c8.121,6.481,13.53,15.759,15.172,26.019h-30.343c-0.699-3.538-2.635-6.711-5.462-8.951
			c-3.003-2.208-6.667-3.331-10.393-3.186c-4.499-0.026-8.779,1.946-11.682,5.386c-3.492,4.747-5.186,10.581-4.778,16.461
			c-0.486,6.005,1.211,11.984,4.778,16.84c3.027,3.646,7.552,5.712,12.289,5.613c3.725,0.146,7.389-0.978,10.393-3.186
			c2.848-2.188,4.791-5.348,5.461-8.876h30.343c-1.654,10.255-7.062,19.528-15.171,26.02c-8.616,6.48-19.188,9.825-29.964,9.481
			c-8.365,0.169-16.646-1.706-24.122-5.462c-6.897-3.591-12.612-9.096-16.461-15.854c-4.133-7.409-6.203-15.792-5.992-24.274
			c-0.216-8.473,1.827-16.851,5.917-24.273c3.828-6.754,9.551-12.239,16.461-15.778c7.506-3.747,15.809-5.621,24.197-5.462
			C774.903,360.73,785.249,364.072,793.685,370.454z"/>
		<path d="M887.975,365.902v-3.868h28.143v88.903h-28.143v-3.869c-7.234,3.786-15.367,5.519-23.516,5.007
			c-8.62,0.203-17.137-1.92-24.653-6.145c-6.781-4.117-12.354-9.953-16.157-16.916c-3.622-7.022-5.373-14.86-5.083-22.757
			c-0.167-7.901,1.632-15.722,5.234-22.757c3.459-6.572,8.722-12.02,15.171-15.702c7.757-4.515,16.59-6.847,25.564-6.751
			C872.632,360.671,880.693,362.341,887.975,365.902z M852.929,390.556c-3.889,4.363-5.882,10.096-5.538,15.93
			c-0.369,5.839,1.627,11.58,5.538,15.931c8.201,7.802,21.079,7.802,29.28,0c3.948-4.281,6.023-9.961,5.766-15.778
			c0.287-5.845-1.791-11.56-5.766-15.854c-8.26-7.651-21.02-7.651-29.28,0V390.556z"/>
		<path d="M974.526,365.902c5.542-3.168,11.822-4.816,18.206-4.778v29.128h-8.117c-6.187-0.381-12.331,1.241-17.522,4.628
			c-4.479,3.896-6.796,9.718-6.221,15.626v40.432h-28.294v-88.903h28.294v16.764C964.346,373.485,969.024,369.067,974.526,365.902z"
			/>
		<path d="M1005.779,423.705v27.232h-29.28v-27.232H1005.779z"/>
		<path d="M1167.126,371.364c6.813,7.708,10.302,17.797,9.709,28.066v51.507h-28.066v-48.32c0.278-4.832-1.419-9.568-4.703-13.123
			c-7.492-6.478-18.603-6.478-26.095,0c-3.467,3.853-5.244,8.936-4.931,14.109v47.03h-28.294v-48.017
			c0.232-4.729-1.402-9.36-4.552-12.896c-3.424-3.248-8.031-4.948-12.744-4.703c-4.795-0.19-9.476,1.496-13.047,4.703
			c-3.495,3.866-5.273,8.984-4.931,14.185v47.031h-28.295v-88.752h28.295v15.171c2.396-4.988,6.296-9.1,11.15-11.757
			c5.378-2.98,11.453-4.473,17.6-4.324c6.527-0.123,12.971,1.501,18.66,4.703c5.377,3.085,9.649,7.782,12.213,13.427
			c3.084-5.417,7.495-9.959,12.819-13.199c14.694-8.288,33.048-6.208,45.514,5.158H1167.126z"/>
		<path d="M1279.166,411.492h-63.947c-0.25,5.324,1.665,10.523,5.31,14.413c3.341,3.003,7.724,4.582,12.213,4.399
			c3.703,0.154,7.354-0.912,10.393-3.034c2.604-1.86,4.524-4.525,5.462-7.586h29.887c-1.055,6.145-3.666,11.916-7.585,16.765
			c-4.189,5.047-9.521,9.025-15.551,11.605c-6.612,2.926-13.783,4.376-21.013,4.248c-8.34,0.163-16.594-1.712-24.046-5.462
			c-6.877-3.593-12.567-9.099-16.386-15.854c-4.134-7.382-6.204-15.74-5.992-24.198c-0.196-8.438,1.817-16.779,5.841-24.198
			c3.771-6.654,9.381-12.08,16.157-15.626c15.27-7.23,32.977-7.23,48.245,0c6.737,3.391,12.35,8.66,16.157,15.171
			c3.921,6.931,5.888,14.796,5.689,22.757C1279.92,407.113,1279.641,409.322,1279.166,411.492z M1246.547,386.99
			c-3.474-2.981-7.939-4.552-12.516-4.399c-4.689-0.139-9.27,1.424-12.896,4.399c-3.581,3.409-5.655,8.104-5.766,13.048h36.26
			C1252.018,395.141,1250.146,390.335,1246.547,386.99z"/>
	</g>
</g>
<linearGradient id="SVGID_1_" gradientUnits="userSpaceOnUse" x1="-14.9023" y1="460.9355" x2="130.5871" y2="338.7229">
	<stop  offset="0" style="stop-color:#000000"/>
	<stop  offset="0.0396" style="stop-color:#000123"/>
	<stop  offset="0.0993" style="stop-color:#000250"/>
	<stop  offset="0.1646" style="stop-color:#00027A"/>
	<stop  offset="0.2343" style="stop-color:#00039E"/>
	<stop  offset="0.3092" style="stop-color:#0004BC"/>
	<stop  offset="0.3913" style="stop-color:#0004D5"/>
	<stop  offset="0.4833" style="stop-color:#0005E8"/>
	<stop  offset="0.5909" style="stop-color:#0005F5"/>
	<stop  offset="0.7285" style="stop-color:#0005FD"/>
	<stop  offset="1" style="stop-color:#0005FF"/>
</linearGradient>
<path fill="none" stroke="url(#SVGID_1_)" stroke-width="4" stroke-miterlimit="10" d="M109.931,349.859v-28.151
	c0-6.771-5.484-12.255-12.258-12.255H20.234c-6.771,0-12.264,5.484-12.264,12.255v158.885c0,6.765,5.493,12.258,12.264,12.258H97.5
	l0,0H20.234c-6.771,0-12.264-5.493-12.264-12.258V321.708c0-6.771,5.493-12.255,12.264-12.255h77.439
	c6.774,0,12.258,5.484,12.258,12.255V349.859L109.931,349.859z"/>
<g>
	<defs>
		<polygon id="SVGID_2_" points="35.072,391.389 106.141,463.47 130.799,439.169 59.724,367.079 		"/>
	</defs>
	<clipPath id="SVGID_3_">
		<use xlink:href="#SVGID_2_"  overflow="visible"/>
	</clipPath>
	
		<linearGradient id="SVGID_4_" gradientUnits="userSpaceOnUse" x1="419.228" y1="600.9609" x2="425.022" y2="600.9609" gradientTransform="matrix(17.1506 1.6134 1.6134 -17.1506 -8126.3726 10041.0459)">
		<stop  offset="0" style="stop-color:#1E1E1E"/>
		<stop  offset="0.006" style="stop-color:#1D1D23"/>
		<stop  offset="0.0678" style="stop-color:#171851"/>
		<stop  offset="0.1355" style="stop-color:#12147A"/>
		<stop  offset="0.2076" style="stop-color:#0D109E"/>
		<stop  offset="0.2851" style="stop-color:#090CBC"/>
		<stop  offset="0.37" style="stop-color:#060AD5"/>
		<stop  offset="0.4652" style="stop-color:#0308E8"/>
		<stop  offset="0.5765" style="stop-color:#0106F5"/>
		<stop  offset="0.719" style="stop-color:#0005FD"/>
		<stop  offset="1" style="stop-color:#0005FF"/>
	</linearGradient>
	<polygon clip-path="url(#SVGID_3_)" fill="url(#SVGID_4_)" points="35.912,358.152 139.787,367.924 129.959,472.397 
		26.083,462.627 	"/>
</g>
<g>
	<defs>
		
			<rect id="SVGID_5_" x="127.381" y="329.931" transform="matrix(-0.7021 -0.7121 0.7121 -0.7021 -39.3545 785.8239)" width="34.628" height="142.426"/>
	</defs>
	<clipPath id="SVGID_6_">
		<use xlink:href="#SVGID_5_"  overflow="visible"/>
	</clipPath>
	
		<linearGradient id="SVGID_7_" gradientUnits="userSpaceOnUse" x1="423.4531" y1="604.4316" x2="429.2463" y2="604.4316" gradientTransform="matrix(17.4104 0 6.0597 -18.3494 -10936.4434 11492.1064)">
		<stop  offset="0" style="stop-color:#1E1E1E"/>
		<stop  offset="0.006" style="stop-color:#1D1D23"/>
		<stop  offset="0.0678" style="stop-color:#171851"/>
		<stop  offset="0.1355" style="stop-color:#12147A"/>
		<stop  offset="0.2076" style="stop-color:#0D109E"/>
		<stop  offset="0.2851" style="stop-color:#090CBC"/>
		<stop  offset="0.37" style="stop-color:#060AD5"/>
		<stop  offset="0.4652" style="stop-color:#0308E8"/>
		<stop  offset="0.5765" style="stop-color:#0106F5"/>
		<stop  offset="0.719" style="stop-color:#0005FD"/>
		<stop  offset="1" style="stop-color:#0005FF"/>
	</linearGradient>
	<polygon clip-path="url(#SVGID_6_)" fill="url(#SVGID_7_)" points="81.828,338.817 248.729,338.817 207.562,463.47 40.664,463.47 	
		"/>
</g>
<polygon fill="#0F1647" points="301.806,426.006 322.235,362.479 352.971,362.479 319.543,453.142 283.738,453.142 250.292,362.479 
	281.034,362.479 "/>
<path fill="#0F1647" d="M446.869,412.842h-65.356c0.336,6.828,2.136,11.732,5.405,14.708c3.267,2.981,7.424,4.464,12.493,4.464
	c4.282,0,7.82-1.03,10.64-3.084c2.809-2.054,4.669-4.711,5.566-7.965h30.575c-1.242,6.393-3.946,12.106-8.109,17.141
	c-4.166,5.046-9.455,8.994-15.873,11.868c-6.412,2.874-13.571,4.299-21.451,4.299c-9.231,0-17.423-1.866-24.57-5.6
	c-7.15-3.746-12.75-9.131-16.807-16.168c-4.047-7.042-6.075-15.273-6.075-24.697c0-9.529,2-17.785,5.996-24.777
	c3.997-6.992,9.597-12.343,16.804-16.085c7.207-3.73,15.42-5.606,24.652-5.606c9.345,0,17.564,1.847,24.661,5.524
	c7.088,3.686,12.581,8.853,16.456,15.52c3.886,6.661,5.827,14.325,5.827,22.992C447.703,407.649,447.426,410.139,446.869,412.842
	 M413.51,387.746c-3.436-2.976-7.682-4.472-12.75-4.472c-5.289,0-9.678,1.519-13.172,4.548c-3.487,3.035-5.461,7.479-5.908,13.322
	h36.806C418.602,395.19,416.944,390.724,413.51,387.746"/>
<path fill="#0F1647" d="M505.552,366.383c5.677-3.25,11.846-4.874,18.489-4.874v29.729h-8.275c-7.66,0-13.591,1.57-17.813,4.715
	c-4.229,3.14-6.33,8.449-6.33,15.916v41.272h-28.883v-90.659h28.883v17.061C495.223,374.017,499.864,369.633,505.552,366.383"/>
<path fill="#0F1647" d="M541.603,326.497c3.151-2.763,7.314-4.149,12.496-4.149c5.176,0,9.345,1.386,12.496,4.149
	c3.151,2.758,4.729,6.254,4.729,10.477c0,4.121-1.579,7.555-4.729,10.313c-3.15,2.769-7.32,4.141-12.496,4.141
	c-5.182,0-9.345-1.372-12.496-4.141c-3.151-2.757-4.729-6.191-4.729-10.313C536.874,332.75,538.452,329.254,541.603,326.497
	 M568.456,453.142h-28.878v-90.656h28.878V453.142z"/>
<path fill="#0F1647" d="M638.023,350.128c-4.729,0-8.163,0.976-10.301,2.933c-2.132,1.946-3.326,5.091-3.547,9.418h17.061v23.391
	h-17.061v67.271h-28.877v-67.271h-11.308v-23.391h11.308v-0.973c0-11.262,3.405-19.962,10.216-26.077
	c6.811-6.113,16.688-9.181,29.636-9.181c2.71,0,4.729,0.062,6.086,0.167v23.883L638.023,350.128z"/>
<path fill="#0F1647" d="M659.304,326.497c3.15-2.763,7.314-4.149,12.496-4.149c5.176,0,9.351,1.386,12.496,4.149
	c3.15,2.758,4.734,6.254,4.734,10.477c0,4.121-1.584,7.555-4.734,10.313c-3.146,2.769-7.32,4.141-12.496,4.141
	c-5.182,0-9.346-1.372-12.496-4.141c-3.151-2.757-4.729-6.191-4.729-10.313C654.575,332.75,656.152,329.254,659.304,326.497
	 M686.156,453.142h-28.871v-90.656h28.871V453.142z"/>
<path fill="#0F1647" d="M775.822,371.013c8.219,6.446,13.401,15.296,15.539,26.564h-30.569c-0.904-3.901-2.754-6.936-5.571-9.108
	c-2.813-2.161-6.364-3.244-10.641-3.244c-5.063,0-9.232,1.923-12.495,5.77c-3.265,3.846-4.899,9.453-4.899,16.812
	c0,7.365,1.635,12.966,4.899,16.813c3.263,3.846,7.433,5.769,12.495,5.769c4.276,0,7.828-1.08,10.641-3.252
	c2.817-2.161,4.667-5.198,5.571-9.096h30.569c-2.138,11.268-7.32,20.121-15.539,26.564c-8.22,6.448-18.407,9.678-30.569,9.678
	c-9.232,0-17.423-1.877-24.567-5.61c-7.149-3.746-12.745-9.131-16.807-16.168c-4.05-7.042-6.069-15.273-6.069-24.697
	c0-9.532,1.991-17.785,5.991-24.777c3.992-6.986,9.593-12.343,16.8-16.085c7.207-3.73,15.42-5.604,24.652-5.604
	C757.415,361.342,767.603,364.57,775.822,371.013"/>
<path fill="#0F1647" d="M871.971,366.405v-3.929h28.714v90.653h-28.714v-3.926c0,0-7.506,5.068-23.973,5.068
	c-10.262,0-19.001-2.545-25.139-6.278c-6.133-3.734-12.943-10.177-16.49-17.221c-3.547-7.036-5.153-13.542-5.153-22.966
	c0-9.532,1.782-16.591,5.335-23.578c3.54-6.992,8.993-12.241,15.131-15.983c6.132-3.73,15.081-6.904,26.033-6.904
	C863.916,361.342,871.971,366.405,871.971,366.405 M836.26,391.556c-3.779,3.9-5.656,9.316-5.656,16.252
	c0,6.935,1.877,12.344,5.656,16.247c3.768,3.897,8.751,5.849,14.944,5.849c6.075,0,11.06-2.003,14.946-6.014
	c3.88-4.01,5.82-9.374,5.82-16.082c0-6.833-1.94-12.213-5.82-16.164c-3.887-3.951-8.871-5.932-14.946-5.932
	C845.011,385.712,840.027,387.658,836.26,391.556"/>
<path fill="#0F1647" d="M960.319,366.383c5.685-3.25,11.845-4.874,18.497-4.874v29.729h-8.281c-7.653,0-13.594,1.57-17.819,4.715
	c-4.22,3.14-6.33,8.449-6.33,15.916v41.272h-28.872v-90.659h28.872v17.061C949.989,374.017,954.634,369.633,960.319,366.383"/>
<rect x="962.266" y="425.354" fill="#0F1647" width="29.89" height="27.787"/>
<path fill="#0F1647" d="M1156.689,371.958c6.629,6.876,9.955,16.43,9.955,28.646v52.538h-28.668v-49.299
	c0-5.725-1.584-10.186-4.798-13.376c-3.19-3.187-7.557-4.796-13.05-4.796c-5.753,0-10.277,1.697-13.582,5.114
	c-3.326,3.397-4.978,8.191-4.978,14.348v48.01h-28.828v-49.299c0-5.725-1.577-10.186-4.723-13.376
	c-3.146-3.187-7.468-4.796-12.965-4.796c-5.748,0-10.296,1.674-13.668,5.023c-3.37,3.352-5.045,8.171-5.045,14.439v48.01h-28.827
	v-90.503h28.827v15.409c2.466-5.068,6.245-9.07,11.381-11.989c5.114-2.922,11.093-4.393,17.943-4.393
	c7.189,0,13.548,1.604,19.047,4.797c5.498,3.19,9.662,7.761,12.468,13.687c3.258-5.612,7.738-10.089,13.418-13.461
	c5.656-3.349,11.924-5.023,18.78-5.023C1140.963,361.665,1150.059,365.107,1156.689,371.958"/>
<path fill="#0F1647" d="M1270.996,412.91h-65.234c0.34,6.811,2.127,11.727,5.385,14.685c3.259,2.987,7.422,4.458,12.491,4.458
	c4.253,0,7.806-1.019,10.611-3.072c2.806-2.064,4.661-4.711,5.566-7.941h30.502c-1.223,6.375-3.938,12.076-8.078,17.101
	c-4.164,5.023-9.437,8.982-15.861,11.834c-6.404,2.874-13.531,4.299-21.405,4.299c-9.21,0-17.401-1.855-24.528-5.589
	c-7.128-3.733-12.711-9.119-16.762-16.134c-4.05-7.036-6.063-15.251-6.063-24.663c0-9.5,1.991-17.757,5.973-24.726
	c3.983-6.973,9.566-12.332,16.762-16.063c7.195-3.711,15.409-5.589,24.619-5.589c9.322,0,17.535,1.83,24.618,5.521
	c7.082,3.665,12.558,8.821,16.427,15.471c3.892,6.655,5.815,14.3,5.815,22.964C1271.833,407.734,1271.562,410.217,1270.996,412.91
	 M1237.711,387.865c-3.439-2.964-7.67-4.46-12.738-4.46c-5.272,0-9.663,1.519-13.146,4.531c-3.485,3.029-5.453,7.467-5.906,13.305
	h36.746C1242.779,395.286,1241.128,390.832,1237.711,387.865"/>
</svg>
