<svg xmlns="http://www.w3.org/2000/svg" xmlns:xlink="http://www.w3.org/1999/xlink" viewBox="0 0 168.74 24.71"><defs><style>.cls-1{fill:none;stroke-miterlimit:10;stroke:url(#Degradado_sin_nombre_2);}.cls-2{fill:url(#Degradado_sin_nombre_2-2);}.cls-3{fill:url(#Degradado_sin_nombre_2-3);}.cls-4{fill:#341849;}</style><linearGradient id="Degradado_sin_nombre_2" x1="-2.66" y1="20.21" x2="16.52" y2="4.11" gradientUnits="userSpaceOnUse"><stop offset="0" stop-color="#6127ff"/><stop offset="0.05" stop-color="#6e27ff"/><stop offset="0.16" stop-color="#8628ff"/><stop offset="0.29" stop-color="#9928ff"/><stop offset="0.43" stop-color="#a629ff"/><stop offset="0.62" stop-color="#ae29ff"/><stop offset="1" stop-color="#b029ff"/></linearGradient><linearGradient id="Degradado_sin_nombre_2-2" x1="181.55" y1="-94.89" x2="191.43" y2="-103.19" gradientTransform="translate(-88.85 -172.31) rotate(90)" xlink:href="#Degradado_sin_nombre_2"/><linearGradient id="Degradado_sin_nombre_2-3" x1="137.73" y1="-322.19" x2="131.13" y2="-331.35" gradientTransform="matrix(0, 1.41, -1, 0, -308.19, -177.2)" xlink:href="#Degradado_sin_nombre_2"/></defs><title>originalLineal</title><g id="Capa_2" data-name="Capa 2"><g id="Capa_2-2" data-name="Capa 2"><path class="cls-1" d="M13.68,5.72V2.08A1.59,1.59,0,0,0,12.09.5h-10A1.58,1.58,0,0,0,.5,2.08V22.62a1.59,1.59,0,0,0,1.58,1.59h10"/><rect class="cls-2" x="7.95" y="7.64" width="4.48" height="13.08" transform="translate(-7.02 11.24) rotate(-44.6)"/><rect class="cls-3" x="15.93" y="3.15" width="4.48" height="18.41" transform="translate(14.21 -9.26) rotate(45.4)"/><path class="cls-4" d="M43.36,15.57,46,7.35h4L45.65,19.07H41L36.7,7.35h4Z"/><path class="cls-4" d="M62.11,13.86H53.66a2.63,2.63,0,0,0,.7,1.9,2.55,2.55,0,0,0,3,.18,1.88,1.88,0,0,0,.72-1h4A4.86,4.86,0,0,1,61,17.13a5.55,5.55,0,0,1-2,1.53,6.72,6.72,0,0,1-2.77.56A6.8,6.8,0,0,1,53,18.5a5.33,5.33,0,0,1-2.17-2.09,6.35,6.35,0,0,1-.79-3.2,6.3,6.3,0,0,1,.78-3.2A5.3,5.3,0,0,1,53,7.93a7.47,7.47,0,0,1,6.38,0,5.2,5.2,0,0,1,2.12,2,5.81,5.81,0,0,1,.76,3A5,5,0,0,1,62.11,13.86ZM57.8,10.62a2.69,2.69,0,0,0-3.35,0,2.4,2.4,0,0,0-.77,1.72h4.76A2.14,2.14,0,0,0,57.8,10.62Z"/><path class="cls-4" d="M69.69,7.86a4.74,4.74,0,0,1,2.39-.63v3.84H71a3.77,3.77,0,0,0-2.3.61,2.39,2.39,0,0,0-.82,2.06v5.33H64.16V7.35h3.73V9.56A5.32,5.32,0,0,1,69.69,7.86Z"/><path class="cls-4" d="M74.35,2.7A2.41,2.41,0,0,1,76,2.17a2.37,2.37,0,0,1,1.61.53,1.72,1.72,0,0,1,.61,1.36,1.69,1.69,0,0,1-.61,1.33A2.32,2.32,0,0,1,76,5.93a2.37,2.37,0,0,1-1.62-.54,1.72,1.72,0,0,1-.61-1.33A1.76,1.76,0,0,1,74.35,2.7Zm3.47,4.65V19.07H74.09V7.35Z"/><path class="cls-4" d="M86.82,5.76a1.92,1.92,0,0,0-1.34.38A1.68,1.68,0,0,0,85,7.35h2.2v3H85v8.69H81.29V10.38H79.83v-3h1.46V7.23a4.29,4.29,0,0,1,1.32-3.37,5.56,5.56,0,0,1,3.83-1.19l.79,0V5.78Z"/><path class="cls-4" d="M89.57,2.7a2.37,2.37,0,0,1,1.61-.53,2.41,2.41,0,0,1,1.62.53,1.76,1.76,0,0,1,.61,1.36,1.72,1.72,0,0,1-.61,1.33,2.37,2.37,0,0,1-1.62.54,2.32,2.32,0,0,1-1.61-.54A1.69,1.69,0,0,1,89,4.06,1.72,1.72,0,0,1,89.57,2.7ZM93,7.35V19.07H89.3V7.35Z"/><path class="cls-4" d="M104.63,8.46a5.5,5.5,0,0,1,2,3.43h-4a2,2,0,0,0-.72-1.18,2.17,2.17,0,0,0-1.37-.42A2,2,0,0,0,99,11a3.28,3.28,0,0,0-.63,2.17A3.3,3.3,0,0,0,99,15.39a2.05,2.05,0,0,0,1.62.74,2.17,2.17,0,0,0,1.37-.42,1.93,1.93,0,0,0,.72-1.17h4a5.52,5.52,0,0,1-2,3.43,6.24,6.24,0,0,1-3.95,1.25,6.78,6.78,0,0,1-3.18-.72,5.33,5.33,0,0,1-2.17-2.09,6.25,6.25,0,0,1-.79-3.2,6.3,6.3,0,0,1,.78-3.2,5.24,5.24,0,0,1,2.17-2.08,6.85,6.85,0,0,1,3.19-.72A6.18,6.18,0,0,1,104.63,8.46Z"/><path class="cls-4" d="M117.06,7.86V7.35h3.71V19.07h-3.71v-.51a5.89,5.89,0,0,1-3.1.66,6.33,6.33,0,0,1-3.25-.81,5.94,5.94,0,0,1-2.13-2.23,6.06,6.06,0,0,1-.67-3,6.29,6.29,0,0,1,.69-3,5.14,5.14,0,0,1,2-2.07,6.56,6.56,0,0,1,3.37-.89A6.36,6.36,0,0,1,117.06,7.86Zm-4.62,3.25a2.9,2.9,0,0,0-.73,2.1,2.87,2.87,0,0,0,.73,2.1,2.8,2.8,0,0,0,3.86,0,2.88,2.88,0,0,0,.76-2.08,2.87,2.87,0,0,0-.76-2.09,2.84,2.84,0,0,0-3.86,0Z"/><path class="cls-4" d="M128.47,7.86a4.78,4.78,0,0,1,2.4-.63v3.84H129.8a3.8,3.8,0,0,0-2.31.61,2.42,2.42,0,0,0-.82,2.06v5.33h-3.73V7.35h3.73V9.56A5.32,5.32,0,0,1,128.47,7.86Z"/><path class="cls-4" d="M132.59,15.48v3.59h-3.86V15.48Z"/><path class="cls-4" d="M153.86,8.58a5.14,5.14,0,0,1,1.28,3.7v6.79h-3.7V12.7a2.35,2.35,0,0,0-.62-1.73,2.63,2.63,0,0,0-3.44,0,2.55,2.55,0,0,0-.65,1.86v6.2H143V12.7A2.38,2.38,0,0,0,142.4,11a2.27,2.27,0,0,0-1.68-.62A2.43,2.43,0,0,0,139,11a2.54,2.54,0,0,0-.65,1.87v6.2h-3.73V7.37h3.73v2a3.49,3.49,0,0,1,1.47-1.55,4.56,4.56,0,0,1,2.32-.57,4.83,4.83,0,0,1,2.46.62,3.9,3.9,0,0,1,1.61,1.77A4.84,4.84,0,0,1,147.9,7.9a5.15,5.15,0,0,1,6,.68Z"/><path class="cls-4" d="M168.63,13.87H160.2a2.6,2.6,0,0,0,.7,1.9,2.27,2.27,0,0,0,1.61.58,2.23,2.23,0,0,0,1.37-.4,1.92,1.92,0,0,0,.72-1h3.94a4.81,4.81,0,0,1-1,2.21,5.45,5.45,0,0,1-2.05,1.53,6.56,6.56,0,0,1-2.77.56,6.76,6.76,0,0,1-3.17-.72,5.3,5.3,0,0,1-2.16-2.09,6.21,6.21,0,0,1-.79-3.19,6.38,6.38,0,0,1,.77-3.19A5.24,5.24,0,0,1,159.5,8a7.43,7.43,0,0,1,6.36,0,5.15,5.15,0,0,1,2.13,2,5.8,5.8,0,0,1,.75,3A4.88,4.88,0,0,1,168.63,13.87Zm-4.3-3.23a2.41,2.41,0,0,0-1.65-.58,2.56,2.56,0,0,0-1.7.58,2.45,2.45,0,0,0-.76,1.72H165A2.12,2.12,0,0,0,164.33,10.64Z"/></g></g></svg>