<svg xmlns="http://www.w3.org/2000/svg" xmlns:xlink="http://www.w3.org/1999/xlink" viewBox="0 0 168.46 24.71"><defs><style>.cls-1{fill:none;stroke-miterlimit:10;stroke:url(#Degradado_sin_nombre_31);}.cls-2{fill:url(#Degradado_sin_nombre_31-2);}.cls-3{fill:url(#Degradado_sin_nombre_31-3);}.cls-4{fill:#fff;}</style><linearGradient id="Degradado_sin_nombre_31" y1="12.35" x2="14.18" y2="12.35" gradientUnits="userSpaceOnUse"><stop offset="0" stop-color="#fff"/><stop offset="1" stop-color="#a5a5a5"/></linearGradient><linearGradient id="Degradado_sin_nombre_31-2" x1="212.69" y1="-108.15" x2="222.56" y2="-116.45" gradientTransform="translate(-102.11 -203.45) rotate(90)" xlink:href="#Degradado_sin_nombre_31"/><linearGradient id="Degradado_sin_nombre_31-3" x1="10.05" y1="12.35" x2="26.3" y2="12.35" gradientTransform="translate(-3.38 16.62) rotate(-45.4)" xlink:href="#Degradado_sin_nombre_31"/></defs><title>BlancoLineal</title><g id="Capa_2" data-name="Capa 2"><g id="Capa_2-2" data-name="Capa 2"><path class="cls-1" d="M13.68,5.72V2.08A1.59,1.59,0,0,0,12.09.5h-10A1.58,1.58,0,0,0,.5,2.08V22.62a1.59,1.59,0,0,0,1.58,1.59h10"/><rect class="cls-2" x="7.95" y="7.64" width="4.48" height="13.08" transform="translate(-7.02 11.24) rotate(-44.6)"/><rect class="cls-3" x="15.93" y="3.15" width="4.48" height="18.41" transform="translate(14.21 -9.26) rotate(45.4)"/><path class="cls-4" d="M43.08,17.22,45.72,9h4L45.37,20.73H40.74L36.42,9h4Z"/><path class="cls-4" d="M61.83,15.52H53.38a2.63,2.63,0,0,0,.7,1.9,2.55,2.55,0,0,0,3,.18,1.88,1.88,0,0,0,.72-1h4a4.86,4.86,0,0,1-1.05,2.22,5.55,5.55,0,0,1-2,1.53,7.22,7.22,0,0,1-6-.17,5.26,5.26,0,0,1-2.17-2.09,6.31,6.31,0,0,1-.78-3.19,6.29,6.29,0,0,1,.77-3.2,5.24,5.24,0,0,1,2.17-2.08,7.47,7.47,0,0,1,6.38,0,5.14,5.14,0,0,1,2.12,2,5.71,5.71,0,0,1,.76,3A5,5,0,0,1,61.83,15.52Zm-4.31-3.24a2.43,2.43,0,0,0-1.65-.58,2.49,2.49,0,0,0-1.7.59A2.4,2.4,0,0,0,53.4,14h4.76A2.13,2.13,0,0,0,57.52,12.28Z"/><path class="cls-4" d="M69.41,9.52a4.74,4.74,0,0,1,2.39-.63v3.84H70.73a3.77,3.77,0,0,0-2.3.61,2.39,2.39,0,0,0-.82,2.06v5.33H63.88V9h3.73v2.21A5.32,5.32,0,0,1,69.41,9.52Z"/><path class="cls-4" d="M74.07,4.36a2.41,2.41,0,0,1,1.62-.53,2.37,2.37,0,0,1,1.61.53,1.72,1.72,0,0,1,.61,1.36,1.69,1.69,0,0,1-.61,1.33,2.32,2.32,0,0,1-1.61.54,2.37,2.37,0,0,1-1.62-.54,1.72,1.72,0,0,1-.61-1.33A1.76,1.76,0,0,1,74.07,4.36ZM77.54,9V20.73H73.81V9Z"/><path class="cls-4" d="M86.54,7.42a1.92,1.92,0,0,0-1.34.38A1.71,1.71,0,0,0,84.75,9H87v3h-2.2v8.69H81V12H79.55V9H81V8.89a4.29,4.29,0,0,1,1.32-3.37,5.56,5.56,0,0,1,3.83-1.19l.79,0V7.44Z"/><path class="cls-4" d="M89.29,4.36a2.37,2.37,0,0,1,1.61-.53,2.41,2.41,0,0,1,1.62.53,1.76,1.76,0,0,1,.61,1.36,1.72,1.72,0,0,1-.61,1.33,2.37,2.37,0,0,1-1.62.54,2.32,2.32,0,0,1-1.61-.54,1.69,1.69,0,0,1-.61-1.33A1.72,1.72,0,0,1,89.29,4.36ZM92.76,9V20.73H89V9Z"/><path class="cls-4" d="M104.35,10.12a5.5,5.5,0,0,1,2,3.43h-4a2,2,0,0,0-.73-1.18,2.17,2.17,0,0,0-1.37-.42,2,2,0,0,0-1.62.75,3.28,3.28,0,0,0-.63,2.17,3.31,3.31,0,0,0,.63,2.18,2.07,2.07,0,0,0,1.62.74,2.17,2.17,0,0,0,1.37-.42,2,2,0,0,0,.73-1.17h4a5.52,5.52,0,0,1-2,3.43,6.22,6.22,0,0,1-3.95,1.25,6.66,6.66,0,0,1-3.18-.73,5.26,5.26,0,0,1-2.17-2.09,6.31,6.31,0,0,1-.79-3.19,6.3,6.3,0,0,1,.78-3.2,5.18,5.18,0,0,1,2.17-2.08,6.85,6.85,0,0,1,3.19-.72A6.16,6.16,0,0,1,104.35,10.12Z"/><path class="cls-4" d="M116.78,9.52V9h3.71V20.73h-3.71v-.51a5.85,5.85,0,0,1-3.1.66,6.33,6.33,0,0,1-3.25-.81,5.94,5.94,0,0,1-2.13-2.23,6.06,6.06,0,0,1-.67-3,6.36,6.36,0,0,1,.69-3,5.17,5.17,0,0,1,2-2.06,6.56,6.56,0,0,1,3.37-.89A6.36,6.36,0,0,1,116.78,9.52Zm-4.62,3.25a2.9,2.9,0,0,0-.73,2.1,2.87,2.87,0,0,0,.73,2.1A2.8,2.8,0,0,0,116,17a2.88,2.88,0,0,0,.76-2.08,2.87,2.87,0,0,0-.76-2.09,2.84,2.84,0,0,0-3.86,0Z"/><path class="cls-4" d="M128.2,9.52a4.72,4.72,0,0,1,2.39-.63v3.84h-1.07a3.8,3.8,0,0,0-2.31.61,2.42,2.42,0,0,0-.82,2.06v5.33h-3.73V9h3.73v2.21A5.26,5.26,0,0,1,128.2,9.52Z"/><path class="cls-4" d="M132.31,17.14v3.59h-3.86V17.14Z"/><path class="cls-4" d="M153.58,10.24a5.14,5.14,0,0,1,1.28,3.7v6.79h-3.7V14.36a2.35,2.35,0,0,0-.62-1.73,2.63,2.63,0,0,0-3.44,0,2.55,2.55,0,0,0-.65,1.86v6.2h-3.72V14.36a2.38,2.38,0,0,0-.61-1.73,2.27,2.27,0,0,0-1.68-.62,2.43,2.43,0,0,0-1.77.65,2.54,2.54,0,0,0-.65,1.87v6.2H134.3V9H138v2a3.49,3.49,0,0,1,1.47-1.55,4.59,4.59,0,0,1,2.32-.57,4.83,4.83,0,0,1,2.46.62,4,4,0,0,1,1.62,1.77,4.73,4.73,0,0,1,1.73-1.74,4.61,4.61,0,0,1,2.43-.65A4.68,4.68,0,0,1,153.58,10.24Z"/><path class="cls-4" d="M168.35,15.53h-8.43a2.64,2.64,0,0,0,.7,1.9,2.27,2.27,0,0,0,1.61.58,2.23,2.23,0,0,0,1.37-.4,1.86,1.86,0,0,0,.72-1h3.94a4.71,4.71,0,0,1-1,2.21,5.55,5.55,0,0,1-2.05,1.53,7.24,7.24,0,0,1-5.94-.16,5.3,5.3,0,0,1-2.16-2.09,6.21,6.21,0,0,1-.79-3.19,6.36,6.36,0,0,1,.77-3.19,5.24,5.24,0,0,1,2.17-2.08,7.45,7.45,0,0,1,6.37,0,5.18,5.18,0,0,1,2.12,2,5.8,5.8,0,0,1,.75,3A4.29,4.29,0,0,1,168.35,15.53Zm-4.3-3.24a2.43,2.43,0,0,0-1.65-.57,2.51,2.51,0,0,0-1.7.58,2.45,2.45,0,0,0-.76,1.72h4.75A2.11,2.11,0,0,0,164.05,12.29Z"/></g></g></svg>